<svg xmlns="http://www.w3.org/2000/svg" viewBox="0 0 800 1000" width="800" height="1000" role="img" aria-label="Espacio para la fotografia del Maestro Gino Da Silva">
  <defs>
    <linearGradient id="bg" x1="0" y1="0" x2="1" y2="1">
      <stop offset="0%" stop-color="#1a0f2e"/>
      <stop offset="55%" stop-color="#0d0814"/>
      <stop offset="100%" stop-color="#000000"/>
    </linearGradient>
    <radialGradient id="glow" cx="50%" cy="38%" r="55%">
      <stop offset="0%" stop-color="#d4af37" stop-opacity="0.35"/>
      <stop offset="45%" stop-color="#6b2fb5" stop-opacity="0.12"/>
      <stop offset="100%" stop-color="#000000" stop-opacity="0"/>
    </radialGradient>
    <linearGradient id="gold" x1="0" y1="0" x2="1" y2="1">
      <stop offset="0%" stop-color="#f6e27a"/>
      <stop offset="50%" stop-color="#d4af37"/>
      <stop offset="100%" stop-color="#a87c1f"/>
    </linearGradient>
  </defs>
  <rect width="800" height="1000" fill="url(#bg)"/>
  <rect width="800" height="1000" fill="url(#glow)"/>
  <g opacity="0.9">
    <circle cx="400" cy="340" r="150" fill="none" stroke="url(#gold)" stroke-width="2" opacity="0.5"/>
    <circle cx="400" cy="340" r="120" fill="#0d0814"/>
    <path d="M400 250c-42 0-72 32-72 78 0 30 14 56 34 70-44 14-78 50-90 96-3 12 6 24 19 24h218c13 0 22-12 19-24-12-46-46-82-90-96 20-14 34-40 34-70 0-46-30-78-72-78z" fill="url(#gold)" opacity="0.85"/>
  </g>
  <text x="400" y="640" text-anchor="middle" font-family="Georgia, 'Times New Roman', serif" font-size="34" fill="url(#gold)" letter-spacing="2">Maestro Gino Da Silva</text>
  <text x="400" y="690" text-anchor="middle" font-family="Arial, sans-serif" font-size="20" fill="#cbb6e6" letter-spacing="3">GUIA ESPIRITUAL</text>
  <text x="400" y="780" text-anchor="middle" font-family="Arial, sans-serif" font-size="16" fill="#8a7fa0">Reemplaza este archivo por la</text>
  <text x="400" y="806" text-anchor="middle" font-family="Arial, sans-serif" font-size="16" fill="#8a7fa0">fotografia real del maestro</text>
</svg>
